<mxfile host="app.diagrams.net" agent="Mozilla/5.0 (Windows NT 10.0; Win64; x64) AppleWebKit/537.36 (KHTML, like Gecko) Chrome/132.0.0.0 Safari/537.36" version="25.0.3">
  <diagram name="Page-1" id="7QrCsYl7KkIb3rB0389U">
    <mxGraphModel dx="1843" dy="883" grid="1" gridSize="10" guides="1" tooltips="1" connect="1" arrows="1" fold="1" page="1" pageScale="1" pageWidth="850" pageHeight="1100" math="0" shadow="0">
      <root>
        <mxCell id="0" />
        <mxCell id="1" parent="0" />
        <mxCell id="hliYvAty7BfUKu3f4H32-57" style="edgeStyle=orthogonalEdgeStyle;rounded=0;orthogonalLoop=1;jettySize=auto;html=1;exitX=0.5;exitY=1;exitDx=0;exitDy=0;entryX=1;entryY=0.5;entryDx=0;entryDy=0;dashed=1;" edge="1" parent="1" source="hliYvAty7BfUKu3f4H32-51" target="hliYvAty7BfUKu3f4H32-53">
          <mxGeometry relative="1" as="geometry" />
        </mxCell>
        <mxCell id="hliYvAty7BfUKu3f4H32-62" style="edgeStyle=orthogonalEdgeStyle;rounded=0;orthogonalLoop=1;jettySize=auto;html=1;exitX=0.75;exitY=1;exitDx=0;exitDy=0;entryX=1;entryY=0.5;entryDx=0;entryDy=0;" edge="1" parent="1" source="hliYvAty7BfUKu3f4H32-51" target="hliYvAty7BfUKu3f4H32-60">
          <mxGeometry relative="1" as="geometry" />
        </mxCell>
        <mxCell id="hliYvAty7BfUKu3f4H32-51" value="" style="rounded=1;whiteSpace=wrap;html=1;fillColor=#d5e8d4;strokeColor=#82b366;" vertex="1" parent="1">
          <mxGeometry x="1180" y="280" width="480" height="360" as="geometry" />
        </mxCell>
        <mxCell id="hliYvAty7BfUKu3f4H32-36" value="" style="rounded=1;whiteSpace=wrap;html=1;fillColor=#ffe6cc;strokeColor=#d79b00;" vertex="1" parent="1">
          <mxGeometry x="410" y="130" width="670" height="660" as="geometry" />
        </mxCell>
        <mxCell id="hliYvAty7BfUKu3f4H32-24" value="ICRN NCSA Conda Channel" style="rounded=1;whiteSpace=wrap;html=1;fillColor=#dae8fc;strokeColor=#6c8ebf;verticalAlign=top;" vertex="1" parent="1">
          <mxGeometry x="860" y="190" width="180" height="260" as="geometry" />
        </mxCell>
        <mxCell id="hliYvAty7BfUKu3f4H32-12" style="edgeStyle=orthogonalEdgeStyle;rounded=0;orthogonalLoop=1;jettySize=auto;html=1;exitX=1;exitY=0.5;exitDx=0;exitDy=0;entryX=0;entryY=0.5;entryDx=0;entryDy=0;dashed=1;" edge="1" parent="1" source="hliYvAty7BfUKu3f4H32-2" target="hliYvAty7BfUKu3f4H32-10">
          <mxGeometry relative="1" as="geometry" />
        </mxCell>
        <mxCell id="hliYvAty7BfUKu3f4H32-2" value="ePhotosynthesis_C v1.1.a-rev0" style="rounded=1;whiteSpace=wrap;html=1;fillColor=#d5e8d4;strokeColor=#82b366;verticalAlign=top;" vertex="1" parent="1">
          <mxGeometry x="80" y="100" width="170" height="80" as="geometry" />
        </mxCell>
        <mxCell id="hliYvAty7BfUKu3f4H32-3" value="ePhotosynthesis_C v1.3" style="rounded=1;whiteSpace=wrap;html=1;fillColor=#d5e8d4;strokeColor=#82b366;verticalAlign=top;" vertex="1" parent="1">
          <mxGeometry x="80" y="200" width="170" height="80" as="geometry" />
        </mxCell>
        <mxCell id="hliYvAty7BfUKu3f4H32-4" value="conda recipe" style="whiteSpace=wrap;html=1;aspect=fixed;fillColor=#e1d5e7;strokeColor=#9673a6;" vertex="1" parent="1">
          <mxGeometry x="200" y="230" width="40" height="40" as="geometry" />
        </mxCell>
        <mxCell id="hliYvAty7BfUKu3f4H32-5" value="conda recipe" style="whiteSpace=wrap;html=1;aspect=fixed;fillColor=#e1d5e7;strokeColor=#9673a6;" vertex="1" parent="1">
          <mxGeometry x="200" y="130" width="40" height="40" as="geometry" />
        </mxCell>
        <mxCell id="hliYvAty7BfUKu3f4H32-6" value="Jupyter Nodeeditor v9.3.1" style="rounded=1;whiteSpace=wrap;html=1;fillColor=#d5e8d4;strokeColor=#82b366;verticalAlign=top;" vertex="1" parent="1">
          <mxGeometry x="80" y="310" width="170" height="80" as="geometry" />
        </mxCell>
        <mxCell id="hliYvAty7BfUKu3f4H32-7" value="conda recipe" style="whiteSpace=wrap;html=1;aspect=fixed;fillColor=#e1d5e7;strokeColor=#9673a6;" vertex="1" parent="1">
          <mxGeometry x="200" y="340" width="40" height="40" as="geometry" />
        </mxCell>
        <mxCell id="hliYvAty7BfUKu3f4H32-8" value="yggdrasil 12923.131" style="rounded=1;whiteSpace=wrap;html=1;fillColor=#d5e8d4;strokeColor=#82b366;verticalAlign=top;" vertex="1" parent="1">
          <mxGeometry x="80" y="430" width="170" height="80" as="geometry" />
        </mxCell>
        <mxCell id="hliYvAty7BfUKu3f4H32-9" value="conda recipe" style="whiteSpace=wrap;html=1;aspect=fixed;fillColor=#e1d5e7;strokeColor=#9673a6;" vertex="1" parent="1">
          <mxGeometry x="200" y="460" width="40" height="40" as="geometry" />
        </mxCell>
        <mxCell id="hliYvAty7BfUKu3f4H32-33" style="edgeStyle=orthogonalEdgeStyle;rounded=0;orthogonalLoop=1;jettySize=auto;html=1;exitX=0.75;exitY=1;exitDx=0;exitDy=0;entryX=0;entryY=0.5;entryDx=0;entryDy=0;" edge="1" parent="1" source="hliYvAty7BfUKu3f4H32-10" target="hliYvAty7BfUKu3f4H32-29">
          <mxGeometry relative="1" as="geometry" />
        </mxCell>
        <mxCell id="hliYvAty7BfUKu3f4H32-10" value="IRC425 - Conda Combos" style="rounded=1;whiteSpace=wrap;html=1;fillColor=#dae8fc;strokeColor=#6c8ebf;verticalAlign=top;" vertex="1" parent="1">
          <mxGeometry x="460" y="170" width="280" height="290" as="geometry" />
        </mxCell>
        <mxCell id="hliYvAty7BfUKu3f4H32-13" style="edgeStyle=orthogonalEdgeStyle;rounded=0;orthogonalLoop=1;jettySize=auto;html=1;exitX=1;exitY=0.5;exitDx=0;exitDy=0;entryX=0;entryY=0.5;entryDx=0;entryDy=0;dashed=1;" edge="1" parent="1" source="hliYvAty7BfUKu3f4H32-3" target="hliYvAty7BfUKu3f4H32-10">
          <mxGeometry relative="1" as="geometry">
            <mxPoint x="260" y="150" as="sourcePoint" />
            <mxPoint x="470" y="330" as="targetPoint" />
          </mxGeometry>
        </mxCell>
        <mxCell id="hliYvAty7BfUKu3f4H32-14" style="edgeStyle=orthogonalEdgeStyle;rounded=0;orthogonalLoop=1;jettySize=auto;html=1;exitX=1;exitY=0.5;exitDx=0;exitDy=0;entryX=0;entryY=0.5;entryDx=0;entryDy=0;dashed=1;" edge="1" parent="1" source="hliYvAty7BfUKu3f4H32-6" target="hliYvAty7BfUKu3f4H32-10">
          <mxGeometry relative="1" as="geometry">
            <mxPoint x="270" y="160" as="sourcePoint" />
            <mxPoint x="480" y="340" as="targetPoint" />
          </mxGeometry>
        </mxCell>
        <mxCell id="hliYvAty7BfUKu3f4H32-15" style="edgeStyle=orthogonalEdgeStyle;rounded=0;orthogonalLoop=1;jettySize=auto;html=1;exitX=1;exitY=0.5;exitDx=0;exitDy=0;entryX=0;entryY=0.5;entryDx=0;entryDy=0;dashed=1;" edge="1" parent="1" source="hliYvAty7BfUKu3f4H32-8" target="hliYvAty7BfUKu3f4H32-10">
          <mxGeometry relative="1" as="geometry">
            <mxPoint x="280" y="170" as="sourcePoint" />
            <mxPoint x="490" y="350" as="targetPoint" />
          </mxGeometry>
        </mxCell>
        <mxCell id="hliYvAty7BfUKu3f4H32-25" style="edgeStyle=orthogonalEdgeStyle;rounded=0;orthogonalLoop=1;jettySize=auto;html=1;exitX=1;exitY=0.5;exitDx=0;exitDy=0;entryX=0;entryY=0.5;entryDx=0;entryDy=0;dashed=1;" edge="1" parent="1" source="hliYvAty7BfUKu3f4H32-16" target="hliYvAty7BfUKu3f4H32-20">
          <mxGeometry relative="1" as="geometry" />
        </mxCell>
        <mxCell id="hliYvAty7BfUKu3f4H32-16" value="conda recipe" style="whiteSpace=wrap;html=1;aspect=fixed;fillColor=#e1d5e7;strokeColor=#9673a6;" vertex="1" parent="1">
          <mxGeometry x="480" y="230" width="40" height="40" as="geometry" />
        </mxCell>
        <mxCell id="hliYvAty7BfUKu3f4H32-26" style="edgeStyle=orthogonalEdgeStyle;rounded=0;orthogonalLoop=1;jettySize=auto;html=1;exitX=1;exitY=0.5;exitDx=0;exitDy=0;entryX=0;entryY=0.5;entryDx=0;entryDy=0;dashed=1;" edge="1" parent="1" source="hliYvAty7BfUKu3f4H32-17" target="hliYvAty7BfUKu3f4H32-21">
          <mxGeometry relative="1" as="geometry" />
        </mxCell>
        <mxCell id="hliYvAty7BfUKu3f4H32-17" value="conda recipe" style="whiteSpace=wrap;html=1;aspect=fixed;fillColor=#e1d5e7;strokeColor=#9673a6;" vertex="1" parent="1">
          <mxGeometry x="480" y="280" width="40" height="40" as="geometry" />
        </mxCell>
        <mxCell id="hliYvAty7BfUKu3f4H32-27" style="edgeStyle=orthogonalEdgeStyle;rounded=0;orthogonalLoop=1;jettySize=auto;html=1;exitX=1;exitY=0.5;exitDx=0;exitDy=0;entryX=0;entryY=0.5;entryDx=0;entryDy=0;dashed=1;" edge="1" parent="1" source="hliYvAty7BfUKu3f4H32-18" target="hliYvAty7BfUKu3f4H32-22">
          <mxGeometry relative="1" as="geometry" />
        </mxCell>
        <mxCell id="hliYvAty7BfUKu3f4H32-18" value="conda recipe" style="whiteSpace=wrap;html=1;aspect=fixed;fillColor=#e1d5e7;strokeColor=#9673a6;" vertex="1" parent="1">
          <mxGeometry x="480" y="330" width="40" height="40" as="geometry" />
        </mxCell>
        <mxCell id="hliYvAty7BfUKu3f4H32-28" style="edgeStyle=orthogonalEdgeStyle;rounded=0;orthogonalLoop=1;jettySize=auto;html=1;exitX=1;exitY=0.5;exitDx=0;exitDy=0;dashed=1;" edge="1" parent="1" source="hliYvAty7BfUKu3f4H32-19" target="hliYvAty7BfUKu3f4H32-23">
          <mxGeometry relative="1" as="geometry" />
        </mxCell>
        <mxCell id="hliYvAty7BfUKu3f4H32-19" value="conda recipe" style="whiteSpace=wrap;html=1;aspect=fixed;fillColor=#e1d5e7;strokeColor=#9673a6;" vertex="1" parent="1">
          <mxGeometry x="480" y="380" width="40" height="40" as="geometry" />
        </mxCell>
        <mxCell id="hliYvAty7BfUKu3f4H32-45" style="edgeStyle=orthogonalEdgeStyle;rounded=0;orthogonalLoop=1;jettySize=auto;html=1;exitX=1;exitY=0.5;exitDx=0;exitDy=0;entryX=0;entryY=0.5;entryDx=0;entryDy=0;" edge="1" parent="1" source="hliYvAty7BfUKu3f4H32-20" target="hliYvAty7BfUKu3f4H32-41">
          <mxGeometry relative="1" as="geometry" />
        </mxCell>
        <mxCell id="hliYvAty7BfUKu3f4H32-20" value="Conda package" style="whiteSpace=wrap;html=1;fillColor=#fff2cc;strokeColor=#d6b656;" vertex="1" parent="1">
          <mxGeometry x="880" y="230" width="140" height="40" as="geometry" />
        </mxCell>
        <mxCell id="hliYvAty7BfUKu3f4H32-21" value="Conda package" style="whiteSpace=wrap;html=1;fillColor=#fff2cc;strokeColor=#d6b656;" vertex="1" parent="1">
          <mxGeometry x="880" y="280" width="140" height="40" as="geometry" />
        </mxCell>
        <mxCell id="hliYvAty7BfUKu3f4H32-44" style="edgeStyle=orthogonalEdgeStyle;rounded=0;orthogonalLoop=1;jettySize=auto;html=1;exitX=1;exitY=0.5;exitDx=0;exitDy=0;entryX=0;entryY=0.5;entryDx=0;entryDy=0;" edge="1" parent="1" source="hliYvAty7BfUKu3f4H32-22" target="hliYvAty7BfUKu3f4H32-40">
          <mxGeometry relative="1" as="geometry">
            <Array as="points">
              <mxPoint x="1100" y="350" />
              <mxPoint x="1100" y="380" />
            </Array>
          </mxGeometry>
        </mxCell>
        <mxCell id="hliYvAty7BfUKu3f4H32-22" value="Conda package" style="whiteSpace=wrap;html=1;fillColor=#fff2cc;strokeColor=#d6b656;" vertex="1" parent="1">
          <mxGeometry x="880" y="330" width="140" height="40" as="geometry" />
        </mxCell>
        <mxCell id="hliYvAty7BfUKu3f4H32-23" value="Conda package" style="whiteSpace=wrap;html=1;fillColor=#fff2cc;strokeColor=#d6b656;" vertex="1" parent="1">
          <mxGeometry x="880" y="380" width="140" height="40" as="geometry" />
        </mxCell>
        <mxCell id="hliYvAty7BfUKu3f4H32-29" value="ICRN NCSA Premade Kernels" style="rounded=1;whiteSpace=wrap;html=1;fillColor=#dae8fc;strokeColor=#6c8ebf;verticalAlign=top;" vertex="1" parent="1">
          <mxGeometry x="860" y="500" width="180" height="250" as="geometry" />
        </mxCell>
        <mxCell id="hliYvAty7BfUKu3f4H32-43" style="edgeStyle=orthogonalEdgeStyle;rounded=0;orthogonalLoop=1;jettySize=auto;html=1;exitX=1;exitY=0.5;exitDx=0;exitDy=0;entryX=0;entryY=0.5;entryDx=0;entryDy=0;" edge="1" parent="1" source="hliYvAty7BfUKu3f4H32-30" target="hliYvAty7BfUKu3f4H32-39">
          <mxGeometry relative="1" as="geometry" />
        </mxCell>
        <mxCell id="hliYvAty7BfUKu3f4H32-30" value="Conda Env A.1" style="whiteSpace=wrap;html=1;fillColor=#fff2cc;strokeColor=#d6b656;" vertex="1" parent="1">
          <mxGeometry x="880" y="530" width="140" height="40" as="geometry" />
        </mxCell>
        <mxCell id="hliYvAty7BfUKu3f4H32-31" value="Conda Env A.2" style="whiteSpace=wrap;html=1;fillColor=#fff2cc;strokeColor=#d6b656;" vertex="1" parent="1">
          <mxGeometry x="880" y="580" width="140" height="40" as="geometry" />
        </mxCell>
        <mxCell id="hliYvAty7BfUKu3f4H32-32" value="Conda Env Z.239" style="whiteSpace=wrap;html=1;fillColor=#fff2cc;strokeColor=#d6b656;" vertex="1" parent="1">
          <mxGeometry x="880" y="630" width="140" height="40" as="geometry" />
        </mxCell>
        <mxCell id="hliYvAty7BfUKu3f4H32-35" style="edgeStyle=orthogonalEdgeStyle;rounded=0;orthogonalLoop=1;jettySize=auto;html=1;exitX=1;exitY=0.5;exitDx=0;exitDy=0;entryX=0;entryY=0.5;entryDx=0;entryDy=0;" edge="1" parent="1" source="hliYvAty7BfUKu3f4H32-34" target="hliYvAty7BfUKu3f4H32-29">
          <mxGeometry relative="1" as="geometry">
            <Array as="points">
              <mxPoint x="670" y="595" />
              <mxPoint x="670" y="625" />
            </Array>
          </mxGeometry>
        </mxCell>
        <mxCell id="hliYvAty7BfUKu3f4H32-34" value="Conda Packages/etc from the wild" style="rounded=1;whiteSpace=wrap;html=1;fillColor=#dae8fc;strokeColor=#6c8ebf;verticalAlign=middle;" vertex="1" parent="1">
          <mxGeometry x="460" y="565" width="180" height="60" as="geometry" />
        </mxCell>
        <mxCell id="hliYvAty7BfUKu3f4H32-37" value="NCSA Software Insider" style="shape=umlActor;verticalLabelPosition=bottom;verticalAlign=top;html=1;outlineConnect=0;" vertex="1" parent="1">
          <mxGeometry x="720" y="660" width="30" height="60" as="geometry" />
        </mxCell>
        <mxCell id="hliYvAty7BfUKu3f4H32-56" style="edgeStyle=orthogonalEdgeStyle;rounded=0;orthogonalLoop=1;jettySize=auto;html=1;exitX=1;exitY=0.5;exitDx=0;exitDy=0;entryX=0;entryY=0.75;entryDx=0;entryDy=0;" edge="1" parent="1" source="hliYvAty7BfUKu3f4H32-39" target="hliYvAty7BfUKu3f4H32-47">
          <mxGeometry relative="1" as="geometry" />
        </mxCell>
        <mxCell id="hliYvAty7BfUKu3f4H32-39" value="Conda Env A.1" style="whiteSpace=wrap;html=1;fillColor=#fff2cc;strokeColor=#d6b656;" vertex="1" parent="1">
          <mxGeometry x="1220" y="400" width="140" height="40" as="geometry" />
        </mxCell>
        <mxCell id="hliYvAty7BfUKu3f4H32-55" style="edgeStyle=orthogonalEdgeStyle;rounded=0;orthogonalLoop=1;jettySize=auto;html=1;exitX=1;exitY=0.5;exitDx=0;exitDy=0;" edge="1" parent="1" source="hliYvAty7BfUKu3f4H32-40">
          <mxGeometry relative="1" as="geometry">
            <mxPoint x="1460" y="390" as="targetPoint" />
          </mxGeometry>
        </mxCell>
        <mxCell id="hliYvAty7BfUKu3f4H32-40" value="Conda package" style="whiteSpace=wrap;html=1;fillColor=#fff2cc;strokeColor=#d6b656;" vertex="1" parent="1">
          <mxGeometry x="1220" y="370" width="140" height="20" as="geometry" />
        </mxCell>
        <mxCell id="hliYvAty7BfUKu3f4H32-54" style="edgeStyle=orthogonalEdgeStyle;rounded=0;orthogonalLoop=1;jettySize=auto;html=1;exitX=1;exitY=0.5;exitDx=0;exitDy=0;entryX=0;entryY=0.5;entryDx=0;entryDy=0;" edge="1" parent="1" source="hliYvAty7BfUKu3f4H32-41" target="hliYvAty7BfUKu3f4H32-47">
          <mxGeometry relative="1" as="geometry" />
        </mxCell>
        <mxCell id="hliYvAty7BfUKu3f4H32-41" value="Conda package" style="whiteSpace=wrap;html=1;fillColor=#fff2cc;strokeColor=#d6b656;" vertex="1" parent="1">
          <mxGeometry x="1220" y="340" width="140" height="20" as="geometry" />
        </mxCell>
        <mxCell id="hliYvAty7BfUKu3f4H32-46" value="Yggdrasil-modeler-user" style="shape=umlActor;verticalLabelPosition=bottom;verticalAlign=top;html=1;outlineConnect=0;" vertex="1" parent="1">
          <mxGeometry x="1390" y="450" width="30" height="60" as="geometry" />
        </mxCell>
        <mxCell id="hliYvAty7BfUKu3f4H32-47" value="Conda Env A.1*" style="whiteSpace=wrap;html=1;fillColor=#e1d5e7;strokeColor=#9673a6;" vertex="1" parent="1">
          <mxGeometry x="1460" y="370" width="140" height="40" as="geometry" />
        </mxCell>
        <mxCell id="hliYvAty7BfUKu3f4H32-48" value="Conda Env A.1*" style="whiteSpace=wrap;html=1;fillColor=#e1d5e7;strokeColor=#9673a6;" vertex="1" parent="1">
          <mxGeometry x="1470" y="380" width="140" height="40" as="geometry" />
        </mxCell>
        <mxCell id="hliYvAty7BfUKu3f4H32-49" value="Conda Env A.1*" style="whiteSpace=wrap;html=1;fillColor=#e1d5e7;strokeColor=#9673a6;" vertex="1" parent="1">
          <mxGeometry x="1480" y="390" width="140" height="40" as="geometry" />
        </mxCell>
        <mxCell id="hliYvAty7BfUKu3f4H32-50" value="Conda Env A.1*" style="whiteSpace=wrap;html=1;fillColor=#e1d5e7;strokeColor=#9673a6;" vertex="1" parent="1">
          <mxGeometry x="1490" y="400" width="140" height="40" as="geometry" />
        </mxCell>
        <mxCell id="hliYvAty7BfUKu3f4H32-58" style="edgeStyle=orthogonalEdgeStyle;rounded=0;orthogonalLoop=1;jettySize=auto;html=1;exitX=0;exitY=0.5;exitDx=0;exitDy=0;entryX=1;entryY=0.75;entryDx=0;entryDy=0;dashed=1;" edge="1" parent="1" source="hliYvAty7BfUKu3f4H32-53" target="hliYvAty7BfUKu3f4H32-29">
          <mxGeometry relative="1" as="geometry" />
        </mxCell>
        <mxCell id="hliYvAty7BfUKu3f4H32-53" value="Conda Env A.1*" style="whiteSpace=wrap;html=1;fillColor=#e1d5e7;strokeColor=#9673a6;" vertex="1" parent="1">
          <mxGeometry x="1135" y="680" width="140" height="40" as="geometry" />
        </mxCell>
        <mxCell id="hliYvAty7BfUKu3f4H32-63" style="edgeStyle=orthogonalEdgeStyle;rounded=0;orthogonalLoop=1;jettySize=auto;html=1;exitX=0;exitY=0.5;exitDx=0;exitDy=0;" edge="1" parent="1" source="hliYvAty7BfUKu3f4H32-60" target="hliYvAty7BfUKu3f4H32-37">
          <mxGeometry relative="1" as="geometry" />
        </mxCell>
        <mxCell id="hliYvAty7BfUKu3f4H32-60" value="requests for new packages in conda channel" style="rounded=1;whiteSpace=wrap;html=1;fillColor=#e1d5e7;strokeColor=#9673a6;" vertex="1" parent="1">
          <mxGeometry x="1120" y="800" width="270" height="60" as="geometry" />
        </mxCell>
        <mxCell id="hliYvAty7BfUKu3f4H32-64" value="&lt;div&gt;&lt;u&gt;needs to use:&lt;/u&gt;&lt;/div&gt;Conda clone&lt;div&gt;conda install&amp;nbsp;&lt;/div&gt;&lt;div&gt;conda remove&lt;/div&gt;&lt;div&gt;&lt;div style=&quot;&quot;&gt;&lt;pre style=&quot;font-size: 10.5pt;&quot;&gt;&lt;font style=&quot;&quot; face=&quot;Helvetica&quot;&gt;python -m ipykernel install&lt;/font&gt;&lt;/pre&gt;&lt;/div&gt;&lt;/div&gt;" style="text;html=1;align=center;verticalAlign=middle;whiteSpace=wrap;rounded=0;" vertex="1" parent="1">
          <mxGeometry x="1290" y="560" width="245" height="70" as="geometry" />
        </mxCell>
      </root>
    </mxGraphModel>
  </diagram>
</mxfile>
